<?xml version="1.0" encoding="UTF-8" standalone="no"?>
<!-- Created with matplotlib (http://matplotlib.org/) -->

<svg
   xmlns:dc="http://purl.org/dc/elements/1.1/"
   xmlns:cc="http://creativecommons.org/ns#"
   xmlns:rdf="http://www.w3.org/1999/02/22-rdf-syntax-ns#"
   xmlns:svg="http://www.w3.org/2000/svg"
   xmlns="http://www.w3.org/2000/svg"
   xmlns:xlink="http://www.w3.org/1999/xlink"
   xmlns:sodipodi="http://sodipodi.sourceforge.net/DTD/sodipodi-0.dtd"
   xmlns:inkscape="http://www.inkscape.org/namespaces/inkscape"
   height="432pt"
   version="1.1"
   viewBox="0 0 576 432"
   width="576pt"
   id="svg2"
   inkscape:version="0.91 r13725"
   sodipodi:docname="sim_shf.svg">
  <metadata
     id="metadata542">
    <rdf:RDF>
      <cc:Work
         rdf:about="">
        <dc:format>image/svg+xml</dc:format>
        <dc:type
           rdf:resource="http://purl.org/dc/dcmitype/StillImage" />
      </cc:Work>
    </rdf:RDF>
  </metadata>
  <sodipodi:namedview
     pagecolor="#ffffff"
     bordercolor="#666666"
     borderopacity="1"
     objecttolerance="10"
     gridtolerance="10"
     guidetolerance="10"
     inkscape:pageopacity="0"
     inkscape:pageshadow="2"
     inkscape:window-width="1536"
     inkscape:window-height="801"
     id="namedview540"
     showgrid="false"
     inkscape:zoom="1.1148148"
     inkscape:cx="339.36877"
     inkscape:cy="255.28904"
     inkscape:window-x="-8"
     inkscape:window-y="-8"
     inkscape:window-maximized="1"
     inkscape:current-layer="figure_1" />
  <defs
     id="defs4">
    <style
       type="text/css"
       id="style6">
*{stroke-linecap:butt;stroke-linejoin:round;stroke-miterlimit:100000;}
  </style>
  </defs>
  <g
     id="figure_1">
    <g
       id="patch_1"
       transform="scale(1.0672757,1.1860465)"
       style="stroke-linecap:butt;stroke-linejoin:round;stroke-miterlimit:100000">
      <path
         d="M 0,432 576,432 576,0 0,0 Z"
         style="fill:#ffffff;stroke-linecap:butt;stroke-linejoin:round;stroke-miterlimit:100000"
         id="path10"
         inkscape:connector-curvature="0" />
    </g>
    <g
       id="axes_1">
      <g
         id="patch_2">
        <path
           d="M 72 388.8  L 518.4 388.8  L 518.4 43.2  L 72 43.2  z "
           style="fill:#ffffff;"
           id="path14" />
      </g>
      <g
         id="line2d_1">
        <path
           clip-path="url(#p9a2270f798)"
           d="M 102.69 285.12  L 152.91 285.12  L 152.91 201.6  L 102.69 201.6  L 102.69 285.12  "
           style="fill:none;stroke:#0000ff;stroke-linecap:square;"
           id="path17" />
      </g>
      <g
         id="line2d_2">
        <path
           clip-path="url(#p9a2270f798)"
           d="M 127.8 285.12  L 127.8 308.16  "
           style="fill:none;stroke:#0000ff;stroke-dasharray:6.000000,6.000000;stroke-dashoffset:0.0;"
           id="path20" />
      </g>
      <g
         id="line2d_3">
        <path
           clip-path="url(#p9a2270f798)"
           d="M 127.8 201.6  L 127.8 146.88  "
           style="fill:none;stroke:#0000ff;stroke-dasharray:6.000000,6.000000;stroke-dashoffset:0.0;"
           id="path23" />
      </g>
      <g
         id="line2d_4">
        <path
           clip-path="url(#p9a2270f798)"
           d="M 115.245 308.16  L 140.355 308.16  "
           style="fill:none;stroke:#000000;stroke-linecap:square;"
           id="path26" />
      </g>
      <g
         id="line2d_5">
        <path
           clip-path="url(#p9a2270f798)"
           d="M 115.245 146.88  L 140.355 146.88  "
           style="fill:none;stroke:#000000;stroke-linecap:square;"
           id="path29" />
      </g>
      <g
         id="line2d_6">
        <path
           clip-path="url(#p9a2270f798)"
           d="M 102.69 227.52  L 152.91 227.52  "
           style="fill:none;stroke:#ff0000;stroke-linecap:square;"
           id="path32" />
      </g>
      <g
         id="line2d_7" />
      <g
         id="line2d_8">
        <path
           clip-path="url(#p9a2270f798)"
           d="M 214.29 253.44  L 264.51 253.44  L 264.51 204.48  L 214.29 204.48  L 214.29 253.44  "
           style="fill:none;stroke:#0000ff;stroke-linecap:square;"
           id="path36" />
      </g>
      <g
         id="line2d_9">
        <path
           clip-path="url(#p9a2270f798)"
           d="M 239.4 253.44  L 239.4 296.64  "
           style="fill:none;stroke:#0000ff;stroke-dasharray:6.000000,6.000000;stroke-dashoffset:0.0;"
           id="path39" />
      </g>
      <g
         id="line2d_10">
        <path
           clip-path="url(#p9a2270f798)"
           d="M 239.4 204.48  L 239.4 169.92  "
           style="fill:none;stroke:#0000ff;stroke-dasharray:6.000000,6.000000;stroke-dashoffset:0.0;"
           id="path42" />
      </g>
      <g
         id="line2d_11">
        <path
           clip-path="url(#p9a2270f798)"
           d="M 226.845 296.64  L 251.955 296.64  "
           style="fill:none;stroke:#000000;stroke-linecap:square;"
           id="path45" />
      </g>
      <g
         id="line2d_12">
        <path
           clip-path="url(#p9a2270f798)"
           d="M 226.845 169.92  L 251.955 169.92  "
           style="fill:none;stroke:#000000;stroke-linecap:square;"
           id="path48" />
      </g>
      <g
         id="line2d_13">
        <path
           clip-path="url(#p9a2270f798)"
           d="M 214.29 239.04  L 264.51 239.04  "
           style="fill:none;stroke:#ff0000;stroke-linecap:square;"
           id="path51" />
      </g>
      <g
         id="line2d_14">
        <defs
           id="defs54">
          <path
             d="M -3 0  L 3 0  M 0 3  L 0 -3  "
             id="m7042851692"
             style="stroke:#000000;stroke-width:0.5;" />
        </defs>
        <g
           clip-path="url(#p9a2270f798)"
           id="g57">
          <use
             style="fill:#0000ff;stroke:#000000;stroke-width:0.5;"
             x="239.4"
             xlink:href="#m7042851692"
             y="123.84"
             id="use59" />
        </g>
      </g>
      <g
         id="line2d_15">
        <path
           clip-path="url(#p9a2270f798)"
           d="M 325.89 285.12  L 376.11 285.12  L 376.11 247.68  L 325.89 247.68  L 325.89 285.12  "
           style="fill:none;stroke:#0000ff;stroke-linecap:square;"
           id="path62" />
      </g>
      <g
         id="line2d_16">
        <path
           clip-path="url(#p9a2270f798)"
           d="M 351 285.12  L 351 308.16  "
           style="fill:none;stroke:#0000ff;stroke-dasharray:6.000000,6.000000;stroke-dashoffset:0.0;"
           id="path65" />
      </g>
      <g
         id="line2d_17">
        <path
           clip-path="url(#p9a2270f798)"
           d="M 351 247.68  L 351 204.48  "
           style="fill:none;stroke:#0000ff;stroke-dasharray:6.000000,6.000000;stroke-dashoffset:0.0;"
           id="path68" />
      </g>
      <g
         id="line2d_18">
        <path
           clip-path="url(#p9a2270f798)"
           d="M 338.445 308.16  L 363.555 308.16  "
           style="fill:none;stroke:#000000;stroke-linecap:square;"
           id="path71" />
      </g>
      <g
         id="line2d_19">
        <path
           clip-path="url(#p9a2270f798)"
           d="M 338.445 204.48  L 363.555 204.48  "
           style="fill:none;stroke:#000000;stroke-linecap:square;"
           id="path74" />
      </g>
      <g
         id="line2d_20">
        <path
           clip-path="url(#p9a2270f798)"
           d="M 325.89 267.84  L 376.11 267.84  "
           style="fill:none;stroke:#ff0000;stroke-linecap:square;"
           id="path77" />
      </g>
      <g
         id="line2d_21">
        <g
           clip-path="url(#p9a2270f798)"
           id="g80">
          <use
             style="fill:#0000ff;stroke:#000000;stroke-width:0.5;"
             x="351.0"
             xlink:href="#m7042851692"
             y="342.72"
             id="use82" />
        </g>
      </g>
      <g
         id="line2d_22">
        <path
           clip-path="url(#p9a2270f798)"
           d="M 437.49 285.12  L 487.71 285.12  L 487.71 236.16  L 437.49 236.16  L 437.49 285.12  "
           style="fill:none;stroke:#0000ff;stroke-linecap:square;"
           id="path85" />
      </g>
      <g
         id="line2d_23">
        <path
           clip-path="url(#p9a2270f798)"
           d="M 462.6 285.12  L 462.6 331.2  "
           style="fill:none;stroke:#0000ff;stroke-dasharray:6.000000,6.000000;stroke-dashoffset:0.0;"
           id="path88" />
      </g>
      <g
         id="line2d_24">
        <path
           clip-path="url(#p9a2270f798)"
           d="M 462.6 236.16  L 462.6 192.96  "
           style="fill:none;stroke:#0000ff;stroke-dasharray:6.000000,6.000000;stroke-dashoffset:0.0;"
           id="path91" />
      </g>
      <g
         id="line2d_25">
        <path
           clip-path="url(#p9a2270f798)"
           d="M 450.045 331.2  L 475.155 331.2  "
           style="fill:none;stroke:#000000;stroke-linecap:square;"
           id="path94" />
      </g>
      <g
         id="line2d_26">
        <path
           clip-path="url(#p9a2270f798)"
           d="M 450.045 192.96  L 475.155 192.96  "
           style="fill:none;stroke:#000000;stroke-linecap:square;"
           id="path97" />
      </g>
      <g
         id="line2d_27">
        <path
           clip-path="url(#p9a2270f798)"
           d="M 437.49 267.84  L 487.71 267.84  "
           style="fill:none;stroke:#ff0000;stroke-linecap:square;"
           id="path100" />
      </g>
      <g
         id="line2d_28" />
      <g
         id="patch_3">
        <path
           d="M 72 43.2  L 518.4 43.2  "
           style="fill:none;stroke:#000000;stroke-linecap:square;stroke-linejoin:miter;"
           id="path104" />
      </g>
      <g
         id="patch_4">
        <path
           d="M 518.4 388.8  L 518.4 43.2  "
           style="fill:none;stroke:#000000;stroke-linecap:square;stroke-linejoin:miter;"
           id="path107" />
      </g>
      <g
         id="patch_5">
        <path
           d="M 72 388.8  L 518.4 388.8  "
           style="fill:none;stroke:#000000;stroke-linecap:square;stroke-linejoin:miter;"
           id="path110" />
      </g>
      <g
         id="patch_6">
        <path
           d="M 72 388.8  L 72 43.2  "
           style="fill:none;stroke:#000000;stroke-linecap:square;stroke-linejoin:miter;"
           id="path113" />
      </g>
      <g
         id="matplotlib.axis_1">
        <g
           id="xtick_1">
          <g
             id="line2d_29">
            <defs
               id="defs118">
              <path
                 d="M 0 0  L 0 -4  "
                 id="me6cd9c173c"
                 style="stroke:#000000;stroke-width:0.5;" />
            </defs>
            <g
               id="g121">
              <use
                 style="stroke:#000000;stroke-width:0.5;"
                 x="127.8"
                 xlink:href="#me6cd9c173c"
                 y="388.8"
                 id="use123" />
            </g>
          </g>
          <g
             id="line2d_30">
            <defs
               id="defs126">
              <path
                 d="M 0 0  L 0 4  "
                 id="m3017044051"
                 style="stroke:#000000;stroke-width:0.5;" />
            </defs>
            <g
               id="g129">
              <use
                 style="stroke:#000000;stroke-width:0.5;"
                 x="127.8"
                 xlink:href="#m3017044051"
                 y="43.2"
                 id="use131" />
            </g>
          </g>
          <g
             id="text_1"
             transform="translate(5.9375e-6,9.0624999e-6)"
             style="stroke-linecap:butt;stroke-linejoin:round;stroke-miterlimit:100000">
            <!-- simultaneous (Ca) -->
            <defs
               id="defs134">
              <path
                 id="BitstreamVeraSans-Roman-20"
                 d=""
                 inkscape:connector-curvature="0"
                 style="stroke-linecap:butt;stroke-linejoin:round;stroke-miterlimit:100000" />
              <path
                 d="m 54.890625,33.015625 0,-33.015625 -8.984375,0 0,32.71875 q 0,7.765625 -3.03125,11.609375 -3.03125,3.859375 -9.078125,3.859375 -7.28125,0 -11.484375,-4.640625 -4.203125,-4.625 -4.203125,-12.640625 l 0,-30.90625 -9.03125,0 0,54.6875 9.03125,0 0,-8.5 q 3.234375,4.9375 7.59375,7.375 4.375,2.4375 10.09375,2.4375 9.421875,0 14.25,-5.828125 4.84375,-5.828125 4.84375,-17.15625"
                 id="BitstreamVeraSans-Roman-6e"
                 inkscape:connector-curvature="0"
                 style="stroke-linecap:butt;stroke-linejoin:round;stroke-miterlimit:100000" />
              <path
                 d="M 52,44.1875 Q 55.375,50.25 60.0625,53.125 64.75,56 71.09375,56 q 8.546875,0 13.1875,-5.984375 4.640625,-5.96875 4.640625,-17 l 0,-33.015625 -9.03125,0 0,32.71875 q 0,7.859375 -2.796875,11.65625 -2.78125,3.8125 -8.484375,3.8125 -6.984375,0 -11.046875,-4.640625 -4.046875,-4.625 -4.046875,-12.640625 l 0,-30.90625 -9.03125,0 0,32.71875 q 0,7.90625 -2.78125,11.6875 -2.78125,3.78125 -8.59375,3.78125 -6.890625,0 -10.953125,-4.65625 -4.046875,-4.65625 -4.046875,-12.625 l 0,-30.90625 -9.03125,0 0,54.6875 9.03125,0 0,-8.5 q 3.078125,5.03125 7.375,7.421875 Q 29.78125,56 35.6875,56 41.65625,56 45.828125,52.96875 50,49.953125 52,44.1875"
                 id="BitstreamVeraSans-Roman-6d"
                 inkscape:connector-curvature="0"
                 style="stroke-linecap:butt;stroke-linejoin:round;stroke-miterlimit:100000" />
              <path
                 d="m 30.609375,48.390625 q -7.21875,0 -11.421875,-5.640625 -4.203125,-5.640625 -4.203125,-15.453125 0,-9.8125 4.171875,-15.453125 4.1875,-5.640625 11.453125,-5.640625 7.1875,0 11.375,5.65625 4.203125,5.671875 4.203125,15.4375 0,9.71875 -4.203125,15.40625 -4.1875,5.6875 -11.375,5.6875 m 0,7.609375 q 11.71875,0 18.40625,-7.625 6.703125,-7.609375 6.703125,-21.078125 0,-13.421875 -6.703125,-21.078125 -6.6875,-7.640625 -18.40625,-7.640625 -11.765625,0 -18.4375,7.640625 -6.65625,7.65625 -6.65625,21.078125 0,13.46875 6.65625,21.078125 Q 18.84375,56 30.609375,56"
                 id="BitstreamVeraSans-Roman-6f"
                 inkscape:connector-curvature="0"
                 style="stroke-linecap:butt;stroke-linejoin:round;stroke-miterlimit:100000" />
              <path
                 d="m 9.421875,75.984375 8.984375,0 L 18.40625,0 9.421875,0 Z"
                 id="BitstreamVeraSans-Roman-6c"
                 inkscape:connector-curvature="0"
                 style="stroke-linecap:butt;stroke-linejoin:round;stroke-miterlimit:100000" />
              <path
                 d="m 8.015625,75.875 7.8125,0 q 7.3125,-11.515625 10.953125,-22.5625 3.640625,-11.03125 3.640625,-21.921875 0,-10.9375 -3.640625,-22.015625 -3.640625,-11.078125 -10.953125,-22.5625 l -7.8125,0 Q 14.5,-2 17.703125,9.0625 20.90625,20.125 20.90625,31.390625 q 0,11.28125 -3.203125,22.265625 -3.203125,11 -9.6875,22.21875"
                 id="BitstreamVeraSans-Roman-29"
                 inkscape:connector-curvature="0"
                 style="stroke-linecap:butt;stroke-linejoin:round;stroke-miterlimit:100000" />
              <path
                 d="m 9.421875,54.6875 8.984375,0 0,-54.6875 -8.984375,0 z m 0,21.296875 8.984375,0 0,-11.390625 -8.984375,0 z"
                 id="BitstreamVeraSans-Roman-69"
                 inkscape:connector-curvature="0"
                 style="stroke-linecap:butt;stroke-linejoin:round;stroke-miterlimit:100000" />
              <path
                 d="M 31,75.875 Q 24.46875,64.65625 21.28125,53.65625 18.109375,42.671875 18.109375,31.390625 18.109375,20.125 21.3125,9.0625 24.515625,-2 31,-13.1875 l -7.8125,0 Q 15.875,-1.703125 12.234375,9.375 8.59375,20.453125 8.59375,31.390625 q 0,10.890625 3.609375,21.921875 3.625,11.046875 10.984375,22.5625 z"
                 id="BitstreamVeraSans-Roman-28"
                 inkscape:connector-curvature="0"
                 style="stroke-linecap:butt;stroke-linejoin:round;stroke-miterlimit:100000" />
              <path
                 d="m 56.203125,29.59375 0,-4.390625 -41.3125,0 q 0.59375,-9.28125 5.59375,-14.140625 5,-4.859375 13.9375,-4.859375 5.171875,0 10.03125,1.265625 4.859375,1.265625 9.65625,3.8125 l 0,-8.5 q -4.84375,-2.046875 -9.921875,-3.125 -5.078125,-1.078125 -10.296875,-1.078125 -13.09375,0 -20.734375,7.609375 -7.640625,7.625 -7.640625,20.625 0,13.421875 7.25,21.296875 Q 20.015625,56 32.328125,56 q 11.03125,0 17.453125,-7.109375 6.421875,-7.09375 6.421875,-19.296875 m -8.984375,2.640625 q -0.09375,7.359375 -4.125,11.75 -4.03125,4.40625 -10.671875,4.40625 -7.515625,0 -12.03125,-4.25 -4.515625,-4.25 -5.203125,-11.96875 z"
                 id="BitstreamVeraSans-Roman-65"
                 inkscape:connector-curvature="0"
                 style="stroke-linecap:butt;stroke-linejoin:round;stroke-miterlimit:100000" />
              <path
                 d="m 64.40625,67.28125 0,-10.390625 q -4.984375,4.640625 -10.625,6.921875 -5.640625,2.296875 -11.984375,2.296875 -12.5,0 -19.140625,-7.640625 -6.640625,-7.640625 -6.640625,-22.09375 0,-14.40625 6.640625,-22.046875 Q 29.296875,6.6875 41.796875,6.6875 q 6.34375,0 11.984375,2.296875 5.640625,2.296875 10.625,6.9375 l 0,-10.3125 Q 59.234375,2.09375 53.4375,0.328125 q -5.78125,-1.75 -12.21875,-1.75 -16.5625,0 -26.09375,10.125 Q 5.609375,18.84375 5.609375,36.375 q 0,17.578125 9.515625,27.703125 9.53125,10.140625 26.09375,10.140625 6.53125,0 12.3125,-1.734375 5.796875,-1.734375 10.875,-5.203125"
                 id="BitstreamVeraSans-Roman-43"
                 inkscape:connector-curvature="0"
                 style="stroke-linecap:butt;stroke-linejoin:round;stroke-miterlimit:100000" />
              <path
                 d="m 18.3125,70.21875 0,-15.53125 18.5,0 0,-6.984375 -18.5,0 0,-29.6875 q 0,-6.6875 1.828125,-8.59375 1.828125,-1.90625 7.453125,-1.90625 l 9.21875,0 L 36.8125,0 27.59375,0 Q 17.1875,0 13.234375,3.875 9.28125,7.765625 9.28125,18.015625 l 0,29.6875 -6.59375,0 0,6.984375 6.59375,0 0,15.53125 z"
                 id="BitstreamVeraSans-Roman-74"
                 inkscape:connector-curvature="0"
                 style="stroke-linecap:butt;stroke-linejoin:round;stroke-miterlimit:100000" />
              <path
                 d="m 8.5,21.578125 0,33.109375 8.984375,0 0,-32.765625 q 0,-7.765625 3.015625,-11.65625 3.03125,-3.875 9.09375,-3.875 7.265625,0 11.484375,4.640625 4.234375,4.640625 4.234375,12.65625 l 0,31 8.984375,0 0,-54.6875 -8.984375,0 0,8.40625 Q 42.046875,3.421875 37.71875,1 33.40625,-1.421875 27.6875,-1.421875 18.265625,-1.421875 13.375,4.4375 8.5,10.296875 8.5,21.578125"
                 id="BitstreamVeraSans-Roman-75"
                 inkscape:connector-curvature="0"
                 style="stroke-linecap:butt;stroke-linejoin:round;stroke-miterlimit:100000" />
              <path
                 d="m 34.28125,27.484375 q -10.890625,0 -15.09375,-2.484375 -4.203125,-2.484375 -4.203125,-8.5 0,-4.78125 3.15625,-7.59375 3.15625,-2.796875 8.5625,-2.796875 7.484375,0 12,5.296875 4.515625,5.296875 4.515625,14.078125 l 0,2 z m 17.921875,3.71875 0,-31.203125 -8.984375,0 0,8.296875 q -3.078125,-4.96875 -7.671875,-7.34375 -4.59375,-2.375 -11.234375,-2.375 -8.390625,0 -13.359375,4.71875 Q 6,8.015625 6,15.921875 q 0,9.21875 6.171875,13.90625 6.1875,4.6875 18.4375,4.6875 l 12.609375,0 0,0.890625 q 0,6.203125 -4.078125,9.59375 -4.078125,3.390625 -11.453125,3.390625 -4.6875,0 -9.140625,-1.125 -4.4375,-1.125 -8.53125,-3.375 l 0,8.3125 q 4.921875,1.90625 9.5625,2.84375 Q 24.21875,56 28.609375,56 q 11.875,0 17.734375,-6.15625 5.859375,-6.140625 5.859375,-18.640625"
                 id="BitstreamVeraSans-Roman-61"
                 inkscape:connector-curvature="0"
                 style="stroke-linecap:butt;stroke-linejoin:round;stroke-miterlimit:100000" />
              <path
                 d="m 44.28125,53.078125 0,-8.5 Q 40.484375,46.53125 36.375,47.5 q -4.09375,0.984375 -8.5,0.984375 -6.6875,0 -10.03125,-2.046875 Q 14.5,44.390625 14.5,40.28125 q 0,-3.125 2.390625,-4.90625 2.390625,-1.78125 9.625,-3.390625 l 3.078125,-0.6875 Q 39.15625,29.25 43.1875,25.515625 47.21875,21.78125 47.21875,15.09375 q 0,-7.625 -6.03125,-12.078125 -6.03125,-4.4375 -16.578125,-4.4375 -4.390625,0 -9.15625,0.859375 Q 10.6875,0.296875 5.421875,2 l 0,9.28125 q 4.984375,-2.59375 9.8125,-3.890625 4.828125,-1.28125 9.578125,-1.28125 6.34375,0 9.75,2.171875 3.421875,2.171875 3.421875,6.125 0,3.65625 -2.46875,5.609375 -2.453125,1.953125 -10.8125,3.765625 l -3.125,0.734375 q -8.34375,1.75 -12.0625,5.390625 -3.703125,3.640625 -3.703125,9.984375 0,7.71875 5.46875,11.90625 Q 16.75,56 26.8125,56 q 4.96875,0 9.359375,-0.734375 4.40625,-0.71875 8.109375,-2.1875"
                 id="BitstreamVeraSans-Roman-73"
                 inkscape:connector-curvature="0"
                 style="stroke-linecap:butt;stroke-linejoin:round;stroke-miterlimit:100000" />
            </defs>
          </g>
        </g>
        <g
           id="xtick_2">
          <g
             id="line2d_31">
            <g
               id="g188">
              <use
                 style="stroke:#000000;stroke-width:0.5;"
                 x="239.4"
                 xlink:href="#me6cd9c173c"
                 y="388.8"
                 id="use190" />
            </g>
          </g>
          <g
             id="line2d_32">
            <g
               id="g193">
              <use
                 style="stroke:#000000;stroke-width:0.5;"
                 x="239.4"
                 xlink:href="#m3017044051"
                 y="43.2"
                 id="use195" />
            </g>
          </g>
          <text
             xml:space="preserve"
             style="font-style:normal;font-weight:normal;font-size:16px;line-height:125%;font-family:sans-serif;letter-spacing:0px;word-spacing:0px;fill:#000000;fill-opacity:1;stroke:none;stroke-width:1px;stroke-linecap:butt;stroke-linejoin:miter;stroke-miterlimit:100000;stroke-opacity:1"
             x="423.72318"
             y="204.33856"
             id="text4694-7"
             sodipodi:linespacing="125%"
             transform="matrix(0.83001229,0.55774511,-0.55774511,0.83001229,0,0)"><tspan
               sodipodi:role="line"
               id="tspan4696-8"
               style="font-style:normal;font-variant:normal;font-weight:bold;font-stretch:normal;font-size:12px;font-family:sans-serif;-inkscape-font-specification:'sans-serif Bold';stroke-linecap:butt;stroke-linejoin:round;stroke-miterlimit:100000"
               x="423.72318"
               y="204.33856">shuffled (Ca)</tspan></text>
        </g>
        <g
           id="xtick_3">
          <g
             id="line2d_33">
            <g
               id="g233">
              <use
                 style="stroke:#000000;stroke-width:0.5;"
                 x="351.0"
                 xlink:href="#me6cd9c173c"
                 y="388.8"
                 id="use235" />
            </g>
          </g>
          <g
             id="line2d_34">
            <g
               id="g238">
              <use
                 style="stroke:#000000;stroke-width:0.5;"
                 x="351.0"
                 xlink:href="#m3017044051"
                 y="43.2"
                 id="use240" />
            </g>
          </g>
          <text
             xml:space="preserve"
             style="font-style:normal;font-weight:normal;font-size:16px;line-height:125%;font-family:sans-serif;letter-spacing:0px;word-spacing:0px;fill:#000000;fill-opacity:1;stroke:none;stroke-width:1px;stroke-linecap:butt;stroke-linejoin:miter;stroke-miterlimit:100000;stroke-opacity:1"
             x="515.57031"
             y="140.701"
             id="text4694"
             sodipodi:linespacing="125%"
             transform="matrix(0.83001229,0.55774511,-0.55774511,0.83001229,0,0)"><tspan
               sodipodi:role="line"
               id="tspan4696"
               style="font-style:normal;font-variant:normal;font-weight:bold;font-stretch:normal;font-size:12px;font-family:sans-serif;-inkscape-font-specification:'sans-serif Bold';stroke-linecap:butt;stroke-linejoin:round;stroke-miterlimit:100000"
               x="515.57031"
               y="140.701">simultanuous (firing rate)</tspan></text>
          <text
             xml:space="preserve"
             style="font-style:normal;font-weight:normal;font-size:16px;line-height:125%;font-family:sans-serif;letter-spacing:0px;word-spacing:0px;fill:#000000;fill-opacity:1;stroke:none;stroke-width:1px;stroke-linecap:butt;stroke-linejoin:miter;stroke-miterlimit:100000;stroke-opacity:1"
             x="322.38739"
             y="266.7334"
             id="text4694-6"
             sodipodi:linespacing="125%"
             transform="matrix(0.83001229,0.55774511,-0.55774511,0.83001229,0,0)"><tspan
               sodipodi:role="line"
               id="tspan4696-7"
               style="font-style:normal;font-variant:normal;font-weight:bold;font-stretch:normal;font-size:12px;font-family:sans-serif;-inkscape-font-specification:'sans-serif Bold';stroke-linecap:butt;stroke-linejoin:round;stroke-miterlimit:100000"
               x="322.38739"
               y="266.7334">simultanuous (Ca)</tspan></text>
        </g>
        <g
           id="xtick_4">
          <g
             id="line2d_35">
            <g
               id="g295">
              <use
                 style="stroke:#000000;stroke-width:0.5;"
                 x="462.6"
                 xlink:href="#me6cd9c173c"
                 y="388.8"
                 id="use297" />
            </g>
          </g>
          <g
             id="line2d_36">
            <g
               id="g300">
              <use
                 style="stroke:#000000;stroke-width:0.5;"
                 x="462.6"
                 xlink:href="#m3017044051"
                 y="43.2"
                 id="use302" />
            </g>
          </g>
        </g>
      </g>
      <g
         id="matplotlib.axis_2">
        <g
           id="ytick_1">
          <g
             id="line2d_37">
            <defs
               id="defs355">
              <path
                 d="M 0 0  L 4 0  "
                 id="mc39d260adf"
                 style="stroke:#000000;stroke-width:0.5;" />
            </defs>
            <g
               id="g358">
              <use
                 style="stroke:#000000;stroke-width:0.5;"
                 x="72.0"
                 xlink:href="#mc39d260adf"
                 y="388.8"
                 id="use360" />
            </g>
          </g>
          <g
             id="line2d_38">
            <defs
               id="defs363">
              <path
                 d="M 0 0  L -4 0  "
                 id="m4ff1aa3ed9"
                 style="stroke:#000000;stroke-width:0.5;" />
            </defs>
            <g
               id="g366">
              <use
                 style="stroke:#000000;stroke-width:0.5;"
                 x="518.4"
                 xlink:href="#m4ff1aa3ed9"
                 y="388.8"
                 id="use368" />
            </g>
          </g>
          <g
             id="text_5">
            <!-- 0.0 -->
            <defs
               id="defs371">
              <path
                 d="M 31.78125 66.40625  Q 24.171875 66.40625 20.328125 58.90625  Q 16.5 51.421875 16.5 36.375  Q 16.5 21.390625 20.328125 13.890625  Q 24.171875 6.390625 31.78125 6.390625  Q 39.453125 6.390625 43.28125 13.890625  Q 47.125 21.390625 47.125 36.375  Q 47.125 51.421875 43.28125 58.90625  Q 39.453125 66.40625 31.78125 66.40625  M 31.78125 74.21875  Q 44.046875 74.21875 50.515625 64.515625  Q 56.984375 54.828125 56.984375 36.375  Q 56.984375 17.96875 50.515625 8.265625  Q 44.046875 -1.421875 31.78125 -1.421875  Q 19.53125 -1.421875 13.0625 8.265625  Q 6.59375 17.96875 6.59375 36.375  Q 6.59375 54.828125 13.0625 64.515625  Q 19.53125 74.21875 31.78125 74.21875  "
                 id="BitstreamVeraSans-Roman-30" />
            </defs>
            <g
               transform="translate(48.91625 392.11125)scale(0.12 -0.12)"
               id="g374">
              <use
                 xlink:href="#BitstreamVeraSans-Roman-30"
                 id="use376" />
              <path
                 id="use378"
                 d="m 74.310547,12.40625 10.3125,0 0,-12.40625 -10.3125,0 z"
                 inkscape:connector-curvature="0"
                 style="stroke-linecap:butt;stroke-linejoin:round;stroke-miterlimit:100000" />
              <use
                 x="95.41015625"
                 xlink:href="#BitstreamVeraSans-Roman-30"
                 id="use380" />
            </g>
          </g>
        </g>
        <g
           id="ytick_2">
          <g
             id="line2d_39">
            <g
               id="g384">
              <use
                 style="stroke:#000000;stroke-width:0.5;"
                 x="72.0"
                 xlink:href="#mc39d260adf"
                 y="319.68"
                 id="use386" />
            </g>
          </g>
          <g
             id="line2d_40">
            <g
               id="g389">
              <use
                 style="stroke:#000000;stroke-width:0.5;"
                 x="518.4"
                 xlink:href="#m4ff1aa3ed9"
                 y="319.68"
                 id="use391" />
            </g>
          </g>
          <g
             id="text_6">
            <!-- 0.2 -->
            <defs
               id="defs394">
              <path
                 d="M 19.1875 8.296875  L 53.609375 8.296875  L 53.609375 0  L 7.328125 0  L 7.328125 8.296875  Q 12.9375 14.109375 22.625 23.890625  Q 32.328125 33.6875 34.8125 36.53125  Q 39.546875 41.84375 41.421875 45.53125  Q 43.3125 49.21875 43.3125 52.78125  Q 43.3125 58.59375 39.234375 62.25  Q 35.15625 65.921875 28.609375 65.921875  Q 23.96875 65.921875 18.8125 64.3125  Q 13.671875 62.703125 7.8125 59.421875  L 7.8125 69.390625  Q 13.765625 71.78125 18.9375 73  Q 24.125 74.21875 28.421875 74.21875  Q 39.75 74.21875 46.484375 68.546875  Q 53.21875 62.890625 53.21875 53.421875  Q 53.21875 48.921875 51.53125 44.890625  Q 49.859375 40.875 45.40625 35.40625  Q 44.1875 33.984375 37.640625 27.21875  Q 31.109375 20.453125 19.1875 8.296875  "
                 id="BitstreamVeraSans-Roman-32" />
            </defs>
            <g
               transform="translate(48.91625 322.99125)scale(0.12 -0.12)"
               id="g397">
              <use
                 xlink:href="#BitstreamVeraSans-Roman-30"
                 id="use399" />
              <path
                 id="use401"
                 d="m 74.310547,12.40625 10.3125,0 0,-12.40625 -10.3125,0 z"
                 inkscape:connector-curvature="0"
                 style="stroke-linecap:butt;stroke-linejoin:round;stroke-miterlimit:100000" />
              <use
                 x="95.41015625"
                 xlink:href="#BitstreamVeraSans-Roman-32"
                 id="use403" />
            </g>
          </g>
        </g>
        <g
           id="ytick_3">
          <g
             id="line2d_41">
            <g
               id="g407">
              <use
                 style="stroke:#000000;stroke-width:0.5;"
                 x="72.0"
                 xlink:href="#mc39d260adf"
                 y="250.56"
                 id="use409" />
            </g>
          </g>
          <g
             id="line2d_42">
            <g
               id="g412">
              <use
                 style="stroke:#000000;stroke-width:0.5;"
                 x="518.4"
                 xlink:href="#m4ff1aa3ed9"
                 y="250.56"
                 id="use414" />
            </g>
          </g>
          <g
             id="text_7">
            <!-- 0.4 -->
            <defs
               id="defs417">
              <path
                 d="M 37.796875 64.3125  L 12.890625 25.390625  L 37.796875 25.390625  z M 35.203125 72.90625  L 47.609375 72.90625  L 47.609375 25.390625  L 58.015625 25.390625  L 58.015625 17.1875  L 47.609375 17.1875  L 47.609375 0  L 37.796875 0  L 37.796875 17.1875  L 4.890625 17.1875  L 4.890625 26.703125  z "
                 id="BitstreamVeraSans-Roman-34" />
            </defs>
            <g
               transform="translate(48.91625 253.87125)scale(0.12 -0.12)"
               id="g420">
              <use
                 xlink:href="#BitstreamVeraSans-Roman-30"
                 id="use422" />
              <path
                 id="use424"
                 d="m 74.310547,12.40625 10.3125,0 0,-12.40625 -10.3125,0 z"
                 inkscape:connector-curvature="0"
                 style="stroke-linecap:butt;stroke-linejoin:round;stroke-miterlimit:100000" />
              <use
                 x="95.41015625"
                 xlink:href="#BitstreamVeraSans-Roman-34"
                 id="use426" />
            </g>
          </g>
        </g>
        <g
           id="ytick_4">
          <g
             id="line2d_43">
            <g
               id="g430">
              <use
                 style="stroke:#000000;stroke-width:0.5;"
                 x="72.0"
                 xlink:href="#mc39d260adf"
                 y="181.44"
                 id="use432" />
            </g>
          </g>
          <g
             id="line2d_44">
            <g
               id="g435">
              <use
                 style="stroke:#000000;stroke-width:0.5;"
                 x="518.4"
                 xlink:href="#m4ff1aa3ed9"
                 y="181.44"
                 id="use437" />
            </g>
          </g>
          <g
             id="text_8">
            <!-- 0.6 -->
            <defs
               id="defs440">
              <path
                 d="M 33.015625 40.375  Q 26.375 40.375 22.484375 35.828125  Q 18.609375 31.296875 18.609375 23.390625  Q 18.609375 15.53125 22.484375 10.953125  Q 26.375 6.390625 33.015625 6.390625  Q 39.65625 6.390625 43.53125 10.953125  Q 47.40625 15.53125 47.40625 23.390625  Q 47.40625 31.296875 43.53125 35.828125  Q 39.65625 40.375 33.015625 40.375  M 52.59375 71.296875  L 52.59375 62.3125  Q 48.875 64.0625 45.09375 64.984375  Q 41.3125 65.921875 37.59375 65.921875  Q 27.828125 65.921875 22.671875 59.328125  Q 17.53125 52.734375 16.796875 39.40625  Q 19.671875 43.65625 24.015625 45.921875  Q 28.375 48.1875 33.59375 48.1875  Q 44.578125 48.1875 50.953125 41.515625  Q 57.328125 34.859375 57.328125 23.390625  Q 57.328125 12.15625 50.6875 5.359375  Q 44.046875 -1.421875 33.015625 -1.421875  Q 20.359375 -1.421875 13.671875 8.265625  Q 6.984375 17.96875 6.984375 36.375  Q 6.984375 53.65625 15.1875 63.9375  Q 23.390625 74.21875 37.203125 74.21875  Q 40.921875 74.21875 44.703125 73.484375  Q 48.484375 72.75 52.59375 71.296875  "
                 id="BitstreamVeraSans-Roman-36" />
            </defs>
            <g
               transform="translate(48.91625 184.75125)scale(0.12 -0.12)"
               id="g443">
              <use
                 xlink:href="#BitstreamVeraSans-Roman-30"
                 id="use445" />
              <path
                 id="use447"
                 d="m 74.310547,12.40625 10.3125,0 0,-12.40625 -10.3125,0 z"
                 inkscape:connector-curvature="0"
                 style="stroke-linecap:butt;stroke-linejoin:round;stroke-miterlimit:100000" />
              <use
                 x="95.41015625"
                 xlink:href="#BitstreamVeraSans-Roman-36"
                 id="use449" />
            </g>
          </g>
        </g>
        <g
           id="ytick_5">
          <g
             id="line2d_45">
            <g
               id="g453">
              <use
                 style="stroke:#000000;stroke-width:0.5;"
                 x="72.0"
                 xlink:href="#mc39d260adf"
                 y="112.32"
                 id="use455" />
            </g>
          </g>
          <g
             id="line2d_46">
            <g
               id="g458">
              <use
                 style="stroke:#000000;stroke-width:0.5;"
                 x="518.4"
                 xlink:href="#m4ff1aa3ed9"
                 y="112.32"
                 id="use460" />
            </g>
          </g>
          <g
             id="text_9">
            <!-- 0.8 -->
            <defs
               id="defs463">
              <path
                 d="M 31.78125 34.625  Q 24.75 34.625 20.71875 30.859375  Q 16.703125 27.09375 16.703125 20.515625  Q 16.703125 13.921875 20.71875 10.15625  Q 24.75 6.390625 31.78125 6.390625  Q 38.8125 6.390625 42.859375 10.171875  Q 46.921875 13.96875 46.921875 20.515625  Q 46.921875 27.09375 42.890625 30.859375  Q 38.875 34.625 31.78125 34.625  M 21.921875 38.8125  Q 15.578125 40.375 12.03125 44.71875  Q 8.5 49.078125 8.5 55.328125  Q 8.5 64.0625 14.71875 69.140625  Q 20.953125 74.21875 31.78125 74.21875  Q 42.671875 74.21875 48.875 69.140625  Q 55.078125 64.0625 55.078125 55.328125  Q 55.078125 49.078125 51.53125 44.71875  Q 48 40.375 41.703125 38.8125  Q 48.828125 37.15625 52.796875 32.3125  Q 56.78125 27.484375 56.78125 20.515625  Q 56.78125 9.90625 50.3125 4.234375  Q 43.84375 -1.421875 31.78125 -1.421875  Q 19.734375 -1.421875 13.25 4.234375  Q 6.78125 9.90625 6.78125 20.515625  Q 6.78125 27.484375 10.78125 32.3125  Q 14.796875 37.15625 21.921875 38.8125  M 18.3125 54.390625  Q 18.3125 48.734375 21.84375 45.5625  Q 25.390625 42.390625 31.78125 42.390625  Q 38.140625 42.390625 41.71875 45.5625  Q 45.3125 48.734375 45.3125 54.390625  Q 45.3125 60.0625 41.71875 63.234375  Q 38.140625 66.40625 31.78125 66.40625  Q 25.390625 66.40625 21.84375 63.234375  Q 18.3125 60.0625 18.3125 54.390625  "
                 id="BitstreamVeraSans-Roman-38" />
            </defs>
            <g
               transform="translate(48.91625 115.63125)scale(0.12 -0.12)"
               id="g466">
              <use
                 xlink:href="#BitstreamVeraSans-Roman-30"
                 id="use468" />
              <path
                 id="use470"
                 d="m 74.310547,12.40625 10.3125,0 0,-12.40625 -10.3125,0 z"
                 inkscape:connector-curvature="0"
                 style="stroke-linecap:butt;stroke-linejoin:round;stroke-miterlimit:100000" />
              <use
                 x="95.41015625"
                 xlink:href="#BitstreamVeraSans-Roman-38"
                 id="use472" />
            </g>
          </g>
        </g>
        <g
           id="ytick_6">
          <g
             id="line2d_47">
            <g
               id="g476">
              <use
                 style="stroke:#000000;stroke-width:0.5;"
                 x="72.0"
                 xlink:href="#mc39d260adf"
                 y="43.2"
                 id="use478" />
            </g>
          </g>
          <g
             id="line2d_48">
            <g
               id="g481">
              <use
                 style="stroke:#000000;stroke-width:0.5;"
                 x="518.4"
                 xlink:href="#m4ff1aa3ed9"
                 y="43.2"
                 id="use483" />
            </g>
          </g>
          <g
             id="text_10">
            <!-- 1.0 -->
            <defs
               id="defs486">
              <path
                 d="M 12.40625 8.296875  L 28.515625 8.296875  L 28.515625 63.921875  L 10.984375 60.40625  L 10.984375 69.390625  L 28.421875 72.90625  L 38.28125 72.90625  L 38.28125 8.296875  L 54.390625 8.296875  L 54.390625 0  L 12.40625 0  z "
                 id="BitstreamVeraSans-Roman-31" />
            </defs>
            <g
               transform="translate(48.91625 46.51125)scale(0.12 -0.12)"
               id="g489">
              <use
                 xlink:href="#BitstreamVeraSans-Roman-31"
                 id="use491" />
              <path
                 id="use493"
                 d="m 74.310547,12.40625 10.3125,0 0,-12.40625 -10.3125,0 z"
                 inkscape:connector-curvature="0"
                 style="stroke-linecap:butt;stroke-linejoin:round;stroke-miterlimit:100000" />
              <use
                 x="95.41015625"
                 xlink:href="#BitstreamVeraSans-Roman-30"
                 id="use495" />
            </g>
          </g>
        </g>
        <text
           xml:space="preserve"
           style="font-style:normal;font-weight:normal;font-size:16px;line-height:125%;font-family:sans-serif;letter-spacing:0px;word-spacing:0px;fill:#000000;fill-opacity:1;stroke:none;stroke-width:1px;stroke-linecap:butt;stroke-linejoin:miter;stroke-miterlimit:100000;stroke-opacity:1"
           x="-286.26639"
           y="28.538059"
           id="text4742"
           sodipodi:linespacing="125%"
           transform="matrix(0,-1,1,0,0,0)"><tspan
             sodipodi:role="line"
             id="tspan4744"
             style="font-style:normal;font-variant:normal;font-weight:bold;font-stretch:normal;font-size:14px;font-family:sans-serif;-inkscape-font-specification:'sans-serif Bold';stroke-linecap:butt;stroke-linejoin:round;stroke-miterlimit:100000"
             x="-286.26639"
             y="28.538059">Test Error Rate</tspan></text>
      </g>
    </g>
    <text
       xml:space="preserve"
       style="font-style:normal;font-weight:normal;font-size:16px;line-height:125%;font-family:sans-serif;letter-spacing:0px;word-spacing:0px;fill:#000000;fill-opacity:1;stroke:none;stroke-width:1px;stroke-linecap:butt;stroke-linejoin:miter;stroke-miterlimit:100000;stroke-opacity:1"
       x="605.52423"
       y="79.127457"
       id="text4732"
       sodipodi:linespacing="125%"
       transform="matrix(0.83001229,0.55774511,-0.55774511,0.83001229,0,0)"><tspan
         sodipodi:role="line"
         id="tspan4734"
         style="font-style:normal;font-variant:normal;font-weight:bold;font-stretch:normal;font-size:12px;font-family:sans-serif;-inkscape-font-specification:'sans-serif Bold';stroke-linecap:butt;stroke-linejoin:round;stroke-miterlimit:100000"
         x="605.52423"
         y="79.127457">shuffled (firing rate)</tspan></text>
  </g>
  <defs
     id="defs535">
    <clipPath
       id="p9a2270f798">
      <rect
         height="345.6"
         width="446.4"
         x="72.0"
         y="43.2"
         id="rect538" />
    </clipPath>
  </defs>
</svg>
