<?xml version="1.0" encoding="UTF-8" standalone="no"?>
<!-- Created with matplotlib (http://matplotlib.org/) -->

<svg
   xmlns:dc="http://purl.org/dc/elements/1.1/"
   xmlns:cc="http://creativecommons.org/ns#"
   xmlns:rdf="http://www.w3.org/1999/02/22-rdf-syntax-ns#"
   xmlns:svg="http://www.w3.org/2000/svg"
   xmlns="http://www.w3.org/2000/svg"
   xmlns:xlink="http://www.w3.org/1999/xlink"
   xmlns:sodipodi="http://sodipodi.sourceforge.net/DTD/sodipodi-0.dtd"
   xmlns:inkscape="http://www.inkscape.org/namespaces/inkscape"
   height="432pt"
   version="1.1"
   viewBox="0 0 576 432"
   width="576pt"
   id="svg2"
   inkscape:version="0.91 r13725"
   sodipodi:docname="sim_shf_p.svg">
  <metadata
     id="metadata539">
    <rdf:RDF>
      <cc:Work
         rdf:about="">
        <dc:format>image/svg+xml</dc:format>
        <dc:type
           rdf:resource="http://purl.org/dc/dcmitype/StillImage" />
      </cc:Work>
    </rdf:RDF>
  </metadata>
  <sodipodi:namedview
     pagecolor="#ffffff"
     bordercolor="#666666"
     borderopacity="1"
     objecttolerance="10"
     gridtolerance="10"
     guidetolerance="10"
     inkscape:pageopacity="0"
     inkscape:pageshadow="2"
     inkscape:window-width="1536"
     inkscape:window-height="801"
     id="namedview537"
     showgrid="false"
     inkscape:zoom="1.1148148"
     inkscape:cx="360"
     inkscape:cy="302.36412"
     inkscape:window-x="-8"
     inkscape:window-y="-8"
     inkscape:window-maximized="1"
     inkscape:current-layer="text_4" />
  <defs
     id="defs4">
    <style
       type="text/css"
       id="style6">
*{stroke-linecap:butt;stroke-linejoin:round;stroke-miterlimit:100000;}
  </style>
  </defs>
  <g
     id="figure_1">
    <g
       id="patch_1">
      <path
         d="M 0 432  L 576 432  L 576 0  L 0 0  z "
         style="fill:#ffffff;"
         id="path10" />
    </g>
    <g
       id="axes_1">
      <g
         id="patch_2">
        <path
           d="M 72 388.8  L 518.4 388.8  L 518.4 43.2  L 72 43.2  z "
           style="fill:#ffffff;"
           id="path14" />
      </g>
      <g
         id="line2d_1">
        <path
           clip-path="url(#p74ed5fec2c)"
           d="M 102.69 204.48  L 152.91 204.48  L 152.91 158.4  L 102.69 158.4  L 102.69 204.48  "
           style="fill:none;stroke:#0000ff;stroke-linecap:square;"
           id="path17" />
      </g>
      <g
         id="line2d_2">
        <path
           clip-path="url(#p74ed5fec2c)"
           d="M 127.8 204.48  L 127.8 239.04  "
           style="fill:none;stroke:#0000ff;stroke-dasharray:6.000000,6.000000;stroke-dashoffset:0.0;"
           id="path20" />
      </g>
      <g
         id="line2d_3">
        <path
           clip-path="url(#p74ed5fec2c)"
           d="M 127.8 158.4  L 127.8 112.32  "
           style="fill:none;stroke:#0000ff;stroke-dasharray:6.000000,6.000000;stroke-dashoffset:0.0;"
           id="path23" />
      </g>
      <g
         id="line2d_4">
        <path
           clip-path="url(#p74ed5fec2c)"
           d="M 115.245 239.04  L 140.355 239.04  "
           style="fill:none;stroke:#000000;stroke-linecap:square;"
           id="path26" />
      </g>
      <g
         id="line2d_5">
        <path
           clip-path="url(#p74ed5fec2c)"
           d="M 115.245 112.32  L 140.355 112.32  "
           style="fill:none;stroke:#000000;stroke-linecap:square;"
           id="path29" />
      </g>
      <g
         id="line2d_6">
        <path
           clip-path="url(#p74ed5fec2c)"
           d="M 102.69 192.96  L 152.91 192.96  "
           style="fill:none;stroke:#ff0000;stroke-linecap:square;"
           id="path32" />
      </g>
      <g
         id="line2d_7" />
      <g
         id="line2d_8">
        <path
           clip-path="url(#p74ed5fec2c)"
           d="M 214.29 227.52  L 264.51 227.52  L 264.51 169.92  L 214.29 169.92  L 214.29 227.52  "
           style="fill:none;stroke:#0000ff;stroke-linecap:square;"
           id="path36" />
      </g>
      <g
         id="line2d_9">
        <path
           clip-path="url(#p74ed5fec2c)"
           d="M 239.4 227.52  L 239.4 250.56  "
           style="fill:none;stroke:#0000ff;stroke-dasharray:6.000000,6.000000;stroke-dashoffset:0.0;"
           id="path39" />
      </g>
      <g
         id="line2d_10">
        <path
           clip-path="url(#p74ed5fec2c)"
           d="M 239.4 169.92  L 239.4 123.84  "
           style="fill:none;stroke:#0000ff;stroke-dasharray:6.000000,6.000000;stroke-dashoffset:0.0;"
           id="path42" />
      </g>
      <g
         id="line2d_11">
        <path
           clip-path="url(#p74ed5fec2c)"
           d="M 226.845 250.56  L 251.955 250.56  "
           style="fill:none;stroke:#000000;stroke-linecap:square;"
           id="path45" />
      </g>
      <g
         id="line2d_12">
        <path
           clip-path="url(#p74ed5fec2c)"
           d="M 226.845 123.84  L 251.955 123.84  "
           style="fill:none;stroke:#000000;stroke-linecap:square;"
           id="path48" />
      </g>
      <g
         id="line2d_13">
        <path
           clip-path="url(#p74ed5fec2c)"
           d="M 214.29 204.48  L 264.51 204.48  "
           style="fill:none;stroke:#ff0000;stroke-linecap:square;"
           id="path51" />
      </g>
      <g
         id="line2d_14" />
      <g
         id="line2d_15">
        <path
           clip-path="url(#p74ed5fec2c)"
           d="M 325.89 169.92  L 376.11 169.92  L 376.11 123.84  L 325.89 123.84  L 325.89 169.92  "
           style="fill:none;stroke:#0000ff;stroke-linecap:square;"
           id="path55" />
      </g>
      <g
         id="line2d_16">
        <path
           clip-path="url(#p74ed5fec2c)"
           d="M 351 169.92  L 351 204.48  "
           style="fill:none;stroke:#0000ff;stroke-dasharray:6.000000,6.000000;stroke-dashoffset:0.0;"
           id="path58" />
      </g>
      <g
         id="line2d_17">
        <path
           clip-path="url(#p74ed5fec2c)"
           d="M 351 123.84  L 351 100.8  "
           style="fill:none;stroke:#0000ff;stroke-dasharray:6.000000,6.000000;stroke-dashoffset:0.0;"
           id="path61" />
      </g>
      <g
         id="line2d_18">
        <path
           clip-path="url(#p74ed5fec2c)"
           d="M 338.445 204.48  L 363.555 204.48  "
           style="fill:none;stroke:#000000;stroke-linecap:square;"
           id="path64" />
      </g>
      <g
         id="line2d_19">
        <path
           clip-path="url(#p74ed5fec2c)"
           d="M 338.445 100.8  L 363.555 100.8  "
           style="fill:none;stroke:#000000;stroke-linecap:square;"
           id="path67" />
      </g>
      <g
         id="line2d_20">
        <path
           clip-path="url(#p74ed5fec2c)"
           d="M 325.89 146.88  L 376.11 146.88  "
           style="fill:none;stroke:#ff0000;stroke-linecap:square;"
           id="path70" />
      </g>
      <g
         id="line2d_21" />
      <g
         id="line2d_22">
        <path
           clip-path="url(#p74ed5fec2c)"
           d="M 437.49 181.44  L 487.71 181.44  L 487.71 123.84  L 437.49 123.84  L 437.49 181.44  "
           style="fill:none;stroke:#0000ff;stroke-linecap:square;"
           id="path74" />
      </g>
      <g
         id="line2d_23">
        <path
           clip-path="url(#p74ed5fec2c)"
           d="M 462.6 181.44  L 462.6 216  "
           style="fill:none;stroke:#0000ff;stroke-dasharray:6.000000,6.000000;stroke-dashoffset:0.0;"
           id="path77" />
      </g>
      <g
         id="line2d_24">
        <path
           clip-path="url(#p74ed5fec2c)"
           d="M 462.6 123.84  L 462.6 89.28  "
           style="fill:none;stroke:#0000ff;stroke-dasharray:6.000000,6.000000;stroke-dashoffset:0.0;"
           id="path80" />
      </g>
      <g
         id="line2d_25">
        <path
           clip-path="url(#p74ed5fec2c)"
           d="M 450.045 216  L 475.155 216  "
           style="fill:none;stroke:#000000;stroke-linecap:square;"
           id="path83" />
      </g>
      <g
         id="line2d_26">
        <path
           clip-path="url(#p74ed5fec2c)"
           d="M 450.045 89.28  L 475.155 89.28  "
           style="fill:none;stroke:#000000;stroke-linecap:square;"
           id="path86" />
      </g>
      <g
         id="line2d_27">
        <path
           clip-path="url(#p74ed5fec2c)"
           d="M 437.49 146.88  L 487.71 146.88  "
           style="fill:none;stroke:#ff0000;stroke-linecap:square;"
           id="path89" />
      </g>
      <g
         id="line2d_28" />
      <g
         id="patch_3">
        <path
           d="M 72 43.2  L 518.4 43.2  "
           style="fill:none;stroke:#000000;stroke-linecap:square;stroke-linejoin:miter;"
           id="path93" />
      </g>
      <g
         id="patch_4">
        <path
           d="M 518.4 388.8  L 518.4 43.2  "
           style="fill:none;stroke:#000000;stroke-linecap:square;stroke-linejoin:miter;"
           id="path96" />
      </g>
      <g
         id="patch_5">
        <path
           d="M 72 388.8  L 518.4 388.8  "
           style="fill:none;stroke:#000000;stroke-linecap:square;stroke-linejoin:miter;"
           id="path99" />
      </g>
      <g
         id="patch_6">
        <path
           d="M 72 388.8  L 72 43.2  "
           style="fill:none;stroke:#000000;stroke-linecap:square;stroke-linejoin:miter;"
           id="path102" />
      </g>
      <g
         id="matplotlib.axis_1">
        <g
           id="xtick_1">
          <g
             id="line2d_29">
            <defs
               id="defs107">
              <path
                 d="M 0 0  L 0 -4  "
                 id="ma05bb3832c"
                 style="stroke:#000000;stroke-width:0.5;" />
            </defs>
            <g
               id="g110">
              <use
                 style="stroke:#000000;stroke-width:0.5;"
                 x="127.8"
                 xlink:href="#ma05bb3832c"
                 y="388.8"
                 id="use112" />
            </g>
          </g>
          <g
             id="line2d_30">
            <defs
               id="defs115">
              <path
                 d="M 0 0  L 0 4  "
                 id="m6c44f4b7c3"
                 style="stroke:#000000;stroke-width:0.5;" />
            </defs>
            <g
               id="g118">
              <use
                 style="stroke:#000000;stroke-width:0.5;"
                 x="127.8"
                 xlink:href="#m6c44f4b7c3"
                 y="43.2"
                 id="use120" />
            </g>
          </g>
        </g>
        <g
           id="xtick_2">
          <g
             id="line2d_31">
            <g
               id="g177">
              <use
                 style="stroke:#000000;stroke-width:0.5;"
                 x="239.4"
                 xlink:href="#ma05bb3832c"
                 y="388.8"
                 id="use179" />
            </g>
          </g>
          <g
             id="line2d_32">
            <g
               id="g182">
              <use
                 style="stroke:#000000;stroke-width:0.5;"
                 x="239.4"
                 xlink:href="#m6c44f4b7c3"
                 y="43.2"
                 id="use184" />
            </g>
          </g>
        </g>
        <g
           id="xtick_3">
          <g
             id="line2d_33">
            <g
               id="g222">
              <use
                 style="stroke:#000000;stroke-width:0.5;"
                 x="351.0"
                 xlink:href="#ma05bb3832c"
                 y="388.8"
                 id="use224" />
            </g>
          </g>
          <g
             id="line2d_34">
            <g
               id="g227">
              <use
                 style="stroke:#000000;stroke-width:0.5;"
                 x="351.0"
                 xlink:href="#m6c44f4b7c3"
                 y="43.2"
                 id="use229" />
            </g>
          </g>
        </g>
        <g
           id="xtick_4">
          <g
             id="line2d_35">
            <g
               id="g284">
              <use
                 style="stroke:#000000;stroke-width:0.5;"
                 x="462.6"
                 xlink:href="#ma05bb3832c"
                 y="388.8"
                 id="use286" />
            </g>
          </g>
          <g
             id="line2d_36">
            <g
               id="g289">
              <use
                 style="stroke:#000000;stroke-width:0.5;"
                 x="462.6"
                 xlink:href="#m6c44f4b7c3"
                 y="43.2"
                 id="use291" />
            </g>
          </g>
          <g
             id="text_4">
            <!-- shuffled_fr (f. rate) -->
            <defs
               id="defs294">
              <path
                 d="M 50.984375 -16.609375  L 50.984375 -23.578125  L -0.984375 -23.578125  L -0.984375 -16.609375  z "
                 id="BitstreamVeraSans-Roman-5f" />
            </defs>
          </g>
        </g>
      </g>
      <g
         id="matplotlib.axis_2">
        <g
           id="ytick_1">
          <g
             id="line2d_37">
            <defs
               id="defs344">
              <path
                 d="M 0 0  L 4 0  "
                 id="m832c210502"
                 style="stroke:#000000;stroke-width:0.5;" />
            </defs>
            <g
               id="g347">
              <use
                 style="stroke:#000000;stroke-width:0.5;"
                 x="72.0"
                 xlink:href="#m832c210502"
                 y="388.8"
                 id="use349" />
            </g>
          </g>
          <g
             id="line2d_38">
            <defs
               id="defs352">
              <path
                 d="M 0 0  L -4 0  "
                 id="md6bc677a89"
                 style="stroke:#000000;stroke-width:0.5;" />
            </defs>
            <g
               id="g355">
              <use
                 style="stroke:#000000;stroke-width:0.5;"
                 x="518.4"
                 xlink:href="#md6bc677a89"
                 y="388.8"
                 id="use357" />
            </g>
          </g>
          <g
             id="text_5">
            <!-- 0.0 -->
            <defs
               id="defs360">
              <path
                 d="M 31.78125 66.40625  Q 24.171875 66.40625 20.328125 58.90625  Q 16.5 51.421875 16.5 36.375  Q 16.5 21.390625 20.328125 13.890625  Q 24.171875 6.390625 31.78125 6.390625  Q 39.453125 6.390625 43.28125 13.890625  Q 47.125 21.390625 47.125 36.375  Q 47.125 51.421875 43.28125 58.90625  Q 39.453125 66.40625 31.78125 66.40625  M 31.78125 74.21875  Q 44.046875 74.21875 50.515625 64.515625  Q 56.984375 54.828125 56.984375 36.375  Q 56.984375 17.96875 50.515625 8.265625  Q 44.046875 -1.421875 31.78125 -1.421875  Q 19.53125 -1.421875 13.0625 8.265625  Q 6.59375 17.96875 6.59375 36.375  Q 6.59375 54.828125 13.0625 64.515625  Q 19.53125 74.21875 31.78125 74.21875  "
                 id="BitstreamVeraSans-Roman-30" />
            </defs>
            <g
               transform="translate(48.91625 392.11125)scale(0.12 -0.12)"
               id="g363">
              <use
                 xlink:href="#BitstreamVeraSans-Roman-30"
                 id="use365" />
              <path
                 id="use367"
                 d="m 74.310547,12.40625 10.3125,0 0,-12.40625 -10.3125,0 z"
                 inkscape:connector-curvature="0"
                 style="stroke-linecap:butt;stroke-linejoin:round;stroke-miterlimit:100000" />
              <use
                 x="95.41015625"
                 xlink:href="#BitstreamVeraSans-Roman-30"
                 id="use369" />
            </g>
          </g>
        </g>
        <g
           id="ytick_2">
          <g
             id="line2d_39">
            <g
               id="g373">
              <use
                 style="stroke:#000000;stroke-width:0.5;"
                 x="72.0"
                 xlink:href="#m832c210502"
                 y="319.68"
                 id="use375" />
            </g>
          </g>
          <g
             id="line2d_40">
            <g
               id="g378">
              <use
                 style="stroke:#000000;stroke-width:0.5;"
                 x="518.4"
                 xlink:href="#md6bc677a89"
                 y="319.68"
                 id="use380" />
            </g>
          </g>
          <g
             id="text_6">
            <!-- 0.2 -->
            <defs
               id="defs383">
              <path
                 d="M 19.1875 8.296875  L 53.609375 8.296875  L 53.609375 0  L 7.328125 0  L 7.328125 8.296875  Q 12.9375 14.109375 22.625 23.890625  Q 32.328125 33.6875 34.8125 36.53125  Q 39.546875 41.84375 41.421875 45.53125  Q 43.3125 49.21875 43.3125 52.78125  Q 43.3125 58.59375 39.234375 62.25  Q 35.15625 65.921875 28.609375 65.921875  Q 23.96875 65.921875 18.8125 64.3125  Q 13.671875 62.703125 7.8125 59.421875  L 7.8125 69.390625  Q 13.765625 71.78125 18.9375 73  Q 24.125 74.21875 28.421875 74.21875  Q 39.75 74.21875 46.484375 68.546875  Q 53.21875 62.890625 53.21875 53.421875  Q 53.21875 48.921875 51.53125 44.890625  Q 49.859375 40.875 45.40625 35.40625  Q 44.1875 33.984375 37.640625 27.21875  Q 31.109375 20.453125 19.1875 8.296875  "
                 id="BitstreamVeraSans-Roman-32" />
            </defs>
            <g
               transform="translate(48.91625 322.99125)scale(0.12 -0.12)"
               id="g386">
              <use
                 xlink:href="#BitstreamVeraSans-Roman-30"
                 id="use388" />
              <path
                 id="use390"
                 d="m 74.310547,12.40625 10.3125,0 0,-12.40625 -10.3125,0 z"
                 inkscape:connector-curvature="0"
                 style="stroke-linecap:butt;stroke-linejoin:round;stroke-miterlimit:100000" />
              <use
                 x="95.41015625"
                 xlink:href="#BitstreamVeraSans-Roman-32"
                 id="use392" />
            </g>
          </g>
        </g>
        <g
           id="ytick_3">
          <g
             id="line2d_41">
            <g
               id="g396">
              <use
                 style="stroke:#000000;stroke-width:0.5;"
                 x="72.0"
                 xlink:href="#m832c210502"
                 y="250.56"
                 id="use398" />
            </g>
          </g>
          <g
             id="line2d_42">
            <g
               id="g401">
              <use
                 style="stroke:#000000;stroke-width:0.5;"
                 x="518.4"
                 xlink:href="#md6bc677a89"
                 y="250.56"
                 id="use403" />
            </g>
          </g>
          <g
             id="text_7">
            <!-- 0.4 -->
            <defs
               id="defs406">
              <path
                 d="M 37.796875 64.3125  L 12.890625 25.390625  L 37.796875 25.390625  z M 35.203125 72.90625  L 47.609375 72.90625  L 47.609375 25.390625  L 58.015625 25.390625  L 58.015625 17.1875  L 47.609375 17.1875  L 47.609375 0  L 37.796875 0  L 37.796875 17.1875  L 4.890625 17.1875  L 4.890625 26.703125  z "
                 id="BitstreamVeraSans-Roman-34" />
            </defs>
            <g
               transform="translate(48.91625 253.87125)scale(0.12 -0.12)"
               id="g409">
              <use
                 xlink:href="#BitstreamVeraSans-Roman-30"
                 id="use411" />
              <path
                 id="use413"
                 d="m 74.310547,12.40625 10.3125,0 0,-12.40625 -10.3125,0 z"
                 inkscape:connector-curvature="0"
                 style="stroke-linecap:butt;stroke-linejoin:round;stroke-miterlimit:100000" />
              <use
                 x="95.41015625"
                 xlink:href="#BitstreamVeraSans-Roman-34"
                 id="use415" />
            </g>
          </g>
        </g>
        <g
           id="ytick_4">
          <g
             id="line2d_43">
            <g
               id="g419">
              <use
                 style="stroke:#000000;stroke-width:0.5;"
                 x="72.0"
                 xlink:href="#m832c210502"
                 y="181.44"
                 id="use421" />
            </g>
          </g>
          <g
             id="line2d_44">
            <g
               id="g424">
              <use
                 style="stroke:#000000;stroke-width:0.5;"
                 x="518.4"
                 xlink:href="#md6bc677a89"
                 y="181.44"
                 id="use426" />
            </g>
          </g>
          <g
             id="text_8">
            <!-- 0.6 -->
            <defs
               id="defs429">
              <path
                 d="M 33.015625 40.375  Q 26.375 40.375 22.484375 35.828125  Q 18.609375 31.296875 18.609375 23.390625  Q 18.609375 15.53125 22.484375 10.953125  Q 26.375 6.390625 33.015625 6.390625  Q 39.65625 6.390625 43.53125 10.953125  Q 47.40625 15.53125 47.40625 23.390625  Q 47.40625 31.296875 43.53125 35.828125  Q 39.65625 40.375 33.015625 40.375  M 52.59375 71.296875  L 52.59375 62.3125  Q 48.875 64.0625 45.09375 64.984375  Q 41.3125 65.921875 37.59375 65.921875  Q 27.828125 65.921875 22.671875 59.328125  Q 17.53125 52.734375 16.796875 39.40625  Q 19.671875 43.65625 24.015625 45.921875  Q 28.375 48.1875 33.59375 48.1875  Q 44.578125 48.1875 50.953125 41.515625  Q 57.328125 34.859375 57.328125 23.390625  Q 57.328125 12.15625 50.6875 5.359375  Q 44.046875 -1.421875 33.015625 -1.421875  Q 20.359375 -1.421875 13.671875 8.265625  Q 6.984375 17.96875 6.984375 36.375  Q 6.984375 53.65625 15.1875 63.9375  Q 23.390625 74.21875 37.203125 74.21875  Q 40.921875 74.21875 44.703125 73.484375  Q 48.484375 72.75 52.59375 71.296875  "
                 id="BitstreamVeraSans-Roman-36" />
            </defs>
            <g
               transform="translate(48.91625 184.75125)scale(0.12 -0.12)"
               id="g432">
              <use
                 xlink:href="#BitstreamVeraSans-Roman-30"
                 id="use434" />
              <path
                 id="use436"
                 d="m 74.310547,12.40625 10.3125,0 0,-12.40625 -10.3125,0 z"
                 inkscape:connector-curvature="0"
                 style="stroke-linecap:butt;stroke-linejoin:round;stroke-miterlimit:100000" />
              <use
                 x="95.41015625"
                 xlink:href="#BitstreamVeraSans-Roman-36"
                 id="use438" />
            </g>
          </g>
        </g>
        <g
           id="ytick_5">
          <g
             id="line2d_45">
            <g
               id="g442">
              <use
                 style="stroke:#000000;stroke-width:0.5;"
                 x="72.0"
                 xlink:href="#m832c210502"
                 y="112.32"
                 id="use444" />
            </g>
          </g>
          <g
             id="line2d_46">
            <g
               id="g447">
              <use
                 style="stroke:#000000;stroke-width:0.5;"
                 x="518.4"
                 xlink:href="#md6bc677a89"
                 y="112.32"
                 id="use449" />
            </g>
          </g>
          <g
             id="text_9">
            <!-- 0.8 -->
            <defs
               id="defs452">
              <path
                 d="M 31.78125 34.625  Q 24.75 34.625 20.71875 30.859375  Q 16.703125 27.09375 16.703125 20.515625  Q 16.703125 13.921875 20.71875 10.15625  Q 24.75 6.390625 31.78125 6.390625  Q 38.8125 6.390625 42.859375 10.171875  Q 46.921875 13.96875 46.921875 20.515625  Q 46.921875 27.09375 42.890625 30.859375  Q 38.875 34.625 31.78125 34.625  M 21.921875 38.8125  Q 15.578125 40.375 12.03125 44.71875  Q 8.5 49.078125 8.5 55.328125  Q 8.5 64.0625 14.71875 69.140625  Q 20.953125 74.21875 31.78125 74.21875  Q 42.671875 74.21875 48.875 69.140625  Q 55.078125 64.0625 55.078125 55.328125  Q 55.078125 49.078125 51.53125 44.71875  Q 48 40.375 41.703125 38.8125  Q 48.828125 37.15625 52.796875 32.3125  Q 56.78125 27.484375 56.78125 20.515625  Q 56.78125 9.90625 50.3125 4.234375  Q 43.84375 -1.421875 31.78125 -1.421875  Q 19.734375 -1.421875 13.25 4.234375  Q 6.78125 9.90625 6.78125 20.515625  Q 6.78125 27.484375 10.78125 32.3125  Q 14.796875 37.15625 21.921875 38.8125  M 18.3125 54.390625  Q 18.3125 48.734375 21.84375 45.5625  Q 25.390625 42.390625 31.78125 42.390625  Q 38.140625 42.390625 41.71875 45.5625  Q 45.3125 48.734375 45.3125 54.390625  Q 45.3125 60.0625 41.71875 63.234375  Q 38.140625 66.40625 31.78125 66.40625  Q 25.390625 66.40625 21.84375 63.234375  Q 18.3125 60.0625 18.3125 54.390625  "
                 id="BitstreamVeraSans-Roman-38" />
            </defs>
            <g
               transform="translate(48.91625 115.63125)scale(0.12 -0.12)"
               id="g455">
              <use
                 xlink:href="#BitstreamVeraSans-Roman-30"
                 id="use457" />
              <path
                 id="use459"
                 d="m 74.310547,12.40625 10.3125,0 0,-12.40625 -10.3125,0 z"
                 inkscape:connector-curvature="0"
                 style="stroke-linecap:butt;stroke-linejoin:round;stroke-miterlimit:100000" />
              <use
                 x="95.41015625"
                 xlink:href="#BitstreamVeraSans-Roman-38"
                 id="use461" />
            </g>
          </g>
        </g>
        <g
           id="ytick_6">
          <g
             id="line2d_47">
            <g
               id="g465">
              <use
                 style="stroke:#000000;stroke-width:0.5;"
                 x="72.0"
                 xlink:href="#m832c210502"
                 y="43.2"
                 id="use467" />
            </g>
          </g>
          <g
             id="line2d_48">
            <g
               id="g470">
              <use
                 style="stroke:#000000;stroke-width:0.5;"
                 x="518.4"
                 xlink:href="#md6bc677a89"
                 y="43.2"
                 id="use472" />
            </g>
          </g>
          <g
             id="text_10">
            <!-- 1.0 -->
            <defs
               id="defs475">
              <path
                 d="M 12.40625 8.296875  L 28.515625 8.296875  L 28.515625 63.921875  L 10.984375 60.40625  L 10.984375 69.390625  L 28.421875 72.90625  L 38.28125 72.90625  L 38.28125 8.296875  L 54.390625 8.296875  L 54.390625 0  L 12.40625 0  z "
                 id="BitstreamVeraSans-Roman-31" />
            </defs>
            <g
               transform="translate(48.91625 46.51125)scale(0.12 -0.12)"
               id="g478">
              <use
                 xlink:href="#BitstreamVeraSans-Roman-31"
                 id="use480" />
              <path
                 id="use482"
                 d="m 74.310547,12.40625 10.3125,0 0,-12.40625 -10.3125,0 z"
                 inkscape:connector-curvature="0"
                 style="stroke-linecap:butt;stroke-linejoin:round;stroke-miterlimit:100000" />
              <use
                 x="95.41015625"
                 xlink:href="#BitstreamVeraSans-Roman-30"
                 id="use484" />
            </g>
          </g>
        </g>
        <g
           id="text_11">
          <!-- Decoder Performance -->
          <defs
             id="defs487">
            <path
               d="M 19.671875 64.796875  L 19.671875 37.40625  L 32.078125 37.40625  Q 38.96875 37.40625 42.71875 40.96875  Q 46.484375 44.53125 46.484375 51.125  Q 46.484375 57.671875 42.71875 61.234375  Q 38.96875 64.796875 32.078125 64.796875  z M 9.8125 72.90625  L 32.078125 72.90625  Q 44.34375 72.90625 50.609375 67.359375  Q 56.890625 61.8125 56.890625 51.125  Q 56.890625 40.328125 50.609375 34.8125  Q 44.34375 29.296875 32.078125 29.296875  L 19.671875 29.296875  L 19.671875 0  L 9.8125 0  z "
               id="BitstreamVeraSans-Roman-50" />
            <path
               d="M 19.671875 64.796875  L 19.671875 8.109375  L 31.59375 8.109375  Q 46.6875 8.109375 53.6875 14.9375  Q 60.6875 21.78125 60.6875 36.53125  Q 60.6875 51.171875 53.6875 57.984375  Q 46.6875 64.796875 31.59375 64.796875  z M 9.8125 72.90625  L 30.078125 72.90625  Q 51.265625 72.90625 61.171875 64.09375  Q 71.09375 55.28125 71.09375 36.53125  Q 71.09375 17.671875 61.125 8.828125  Q 51.171875 0 30.078125 0  L 9.8125 0  z "
               id="BitstreamVeraSans-Roman-44" />
            <path
               d="M 48.78125 52.59375  L 48.78125 44.1875  Q 44.96875 46.296875 41.140625 47.34375  Q 37.3125 48.390625 33.40625 48.390625  Q 24.65625 48.390625 19.8125 42.84375  Q 14.984375 37.3125 14.984375 27.296875  Q 14.984375 17.28125 19.8125 11.734375  Q 24.65625 6.203125 33.40625 6.203125  Q 37.3125 6.203125 41.140625 7.25  Q 44.96875 8.296875 48.78125 10.40625  L 48.78125 2.09375  Q 45.015625 0.34375 40.984375 -0.53125  Q 36.96875 -1.421875 32.421875 -1.421875  Q 20.0625 -1.421875 12.78125 6.34375  Q 5.515625 14.109375 5.515625 27.296875  Q 5.515625 40.671875 12.859375 48.328125  Q 20.21875 56 33.015625 56  Q 37.15625 56 41.109375 55.140625  Q 45.0625 54.296875 48.78125 52.59375  "
               id="BitstreamVeraSans-Roman-63" />
          </defs>
          <g
             transform="translate(41.420625 281.49375)rotate(-90.0)scale(0.12 -0.12)"
             id="g492">
            <use
               xlink:href="#BitstreamVeraSans-Roman-44"
               id="use494" />
            <path
               id="use496"
               d="m 133.20508,29.59375 0,-4.390625 -41.312502,0 q 0.59375,-9.28125 5.59375,-14.140625 5.000002,-4.859375 13.937502,-4.859375 5.17187,0 10.03125,1.265625 4.85937,1.265625 9.65625,3.8125 l 0,-8.5 q -4.84375,-2.046875 -9.92188,-3.125 -5.07812,-1.078125 -10.29687,-1.078125 -13.093752,0 -20.734377,7.609375 -7.640625,7.625 -7.640625,20.625 0,13.421875 7.25,21.296875 Q 97.017578,56 109.33008,56 q 11.03125,0 17.45312,-7.109375 6.42188,-7.09375 6.42188,-19.296875 m -8.98438,2.640625 q -0.0937,7.359375 -4.125,11.75 -4.03125,4.40625 -10.67187,4.40625 -7.51563,0 -12.031252,-4.25 -4.515625,-4.25 -5.203125,-11.96875 z"
               inkscape:connector-curvature="0"
               style="stroke-linecap:butt;stroke-linejoin:round;stroke-miterlimit:100000" />
            <use
               x="138.525390625"
               xlink:href="#BitstreamVeraSans-Roman-63"
               id="use498" />
            <path
               id="use500"
               d="m 224.11523,48.390625 q -7.21875,0 -11.42187,-5.640625 -4.20313,-5.640625 -4.20313,-15.453125 0,-9.8125 4.17188,-15.453125 4.1875,-5.640625 11.45312,-5.640625 7.1875,0 11.375,5.65625 4.20313,5.671875 4.20313,15.4375 0,9.71875 -4.20313,15.40625 -4.1875,5.6875 -11.375,5.6875 m 0,7.609375 q 11.71875,0 18.40625,-7.625 6.70313,-7.609375 6.70313,-21.078125 0,-13.421875 -6.70313,-21.078125 -6.6875,-7.640625 -18.40625,-7.640625 -11.76562,0 -18.4375,7.640625 -6.65625,7.65625 -6.65625,21.078125 0,13.46875 6.65625,21.078125 6.67188,7.625 18.4375,7.625"
               inkscape:connector-curvature="0"
               style="stroke-linecap:butt;stroke-linejoin:round;stroke-miterlimit:100000" />
            <path
               id="use502"
               d="m 300.09375,46.390625 0,29.59375 8.98437,0 0,-75.984375 -8.98437,0 0,8.203125 q -2.82813,-4.875 -7.15625,-7.25 -4.3125,-2.375 -10.375,-2.375 -9.90625,0 -16.14063,7.90625 -6.21875,7.921875 -6.21875,20.8125 0,12.890625 6.21875,20.796875 Q 272.65625,56 282.5625,56 q 6.0625,0 10.375,-2.375 4.32812,-2.359375 7.15625,-7.234375 m -30.60938,-19.09375 q 0,-9.90625 4.07813,-15.546875 4.07812,-5.640625 11.20312,-5.640625 7.125,0 11.21875,5.640625 4.10938,5.640625 4.10938,15.546875 0,9.90625 -4.10938,15.546875 -4.09375,5.640625 -11.21875,5.640625 -7.125,0 -11.20312,-5.640625 -4.07813,-5.640625 -4.07813,-15.546875"
               inkscape:connector-curvature="0"
               style="stroke-linecap:butt;stroke-linejoin:round;stroke-miterlimit:100000" />
            <path
               id="use504"
               d="m 374.36719,29.59375 0,-4.390625 -41.3125,0 q 0.59375,-9.28125 5.59375,-14.140625 5,-4.859375 13.9375,-4.859375 5.17187,0 10.03125,1.265625 4.85937,1.265625 9.65625,3.8125 l 0,-8.5 q -4.84375,-2.046875 -9.92188,-3.125 -5.07812,-1.078125 -10.29687,-1.078125 -13.09375,0 -20.73438,7.609375 -7.64062,7.625 -7.64062,20.625 0,13.421875 7.25,21.296875 Q 338.17969,56 350.49219,56 q 11.03125,0 17.45312,-7.109375 6.42188,-7.09375 6.42188,-19.296875 m -8.98438,2.640625 q -0.0937,7.359375 -4.125,11.75 -4.03125,4.40625 -10.67187,4.40625 -7.51563,0 -12.03125,-4.25 -4.51563,-4.25 -5.20313,-11.96875 z"
               inkscape:connector-curvature="0"
               style="stroke-linecap:butt;stroke-linejoin:round;stroke-miterlimit:100000" />
            <path
               id="use506"
               d="m 420.79687,46.296875 q -1.51562,0.875 -3.29687,1.28125 Q 415.71875,48 413.57812,48 405.95312,48 401.875,43.046875 397.79687,38.09375 397.79687,28.8125 l 0,-28.8125 -9.03125,0 0,54.6875 9.03125,0 0,-8.5 q 2.84375,4.984375 7.375,7.390625 Q 409.71875,56 416.21875,56 q 0.92187,0 2.04687,-0.125 1.125,-0.109375 2.48438,-0.359375 z"
               inkscape:connector-curvature="0"
               style="stroke-linecap:butt;stroke-linejoin:round;stroke-miterlimit:100000" />
            <path
               id="use508"
               d=""
               inkscape:connector-curvature="0"
               style="stroke-linecap:butt;stroke-linejoin:round;stroke-miterlimit:100000" />
            <use
               x="452.587890625"
               xlink:href="#BitstreamVeraSans-Roman-50"
               id="use510" />
            <path
               id="use512"
               d="m 569.04687,29.59375 0,-4.390625 -41.3125,0 q 0.59375,-9.28125 5.59375,-14.140625 5,-4.859375 13.9375,-4.859375 5.17188,0 10.03125,1.265625 4.85938,1.265625 9.65625,3.8125 l 0,-8.5 q -4.84375,-2.046875 -9.92187,-3.125 -5.07813,-1.078125 -10.29688,-1.078125 -13.09375,0 -20.73437,7.609375 -7.64063,7.625 -7.64063,20.625 0,13.421875 7.25,21.296875 Q 532.85937,56 545.17187,56 q 11.03125,0 17.45313,-7.109375 6.42187,-7.09375 6.42187,-19.296875 m -8.98437,2.640625 q -0.0937,7.359375 -4.125,11.75 -4.03125,4.40625 -10.67188,4.40625 -7.51562,0 -12.03125,-4.25 -4.51562,-4.25 -5.20312,-11.96875 z"
               inkscape:connector-curvature="0"
               style="stroke-linecap:butt;stroke-linejoin:round;stroke-miterlimit:100000" />
            <path
               id="use514"
               d="m 615.47656,46.296875 q -1.51562,0.875 -3.29687,1.28125 Q 610.39844,48 608.25781,48 q -7.625,0 -11.70312,-4.953125 -4.07813,-4.953125 -4.07813,-14.234375 l 0,-28.8125 -9.03125,0 0,54.6875 9.03125,0 0,-8.5 q 2.84375,4.984375 7.375,7.390625 Q 604.39844,56 610.89844,56 q 0.92187,0 2.04687,-0.125 1.125,-0.109375 2.48438,-0.359375 z"
               inkscape:connector-curvature="0"
               style="stroke-linecap:butt;stroke-linejoin:round;stroke-miterlimit:100000" />
            <path
               id="use516"
               d="m 652.58984,75.984375 0,-7.484375 -8.59375,0 q -4.82812,0 -6.71875,-1.953125 -1.875,-1.953125 -1.875,-7.03125 l 0,-4.828125 14.79688,0 0,-6.984375 -14.79688,0 0,-47.703125 -9.03125,0 0,47.703125 -8.59375,0 0,6.984375 8.59375,0 0,3.8125 q 0,9.125 4.25,13.296875 4.25,4.1875 13.46875,4.1875 z"
               inkscape:connector-curvature="0"
               style="stroke-linecap:butt;stroke-linejoin:round;stroke-miterlimit:100000" />
            <path
               id="use518"
               d="m 681.29492,48.390625 q -7.21875,0 -11.42187,-5.640625 -4.20313,-5.640625 -4.20313,-15.453125 0,-9.8125 4.17188,-15.453125 4.1875,-5.640625 11.45312,-5.640625 7.1875,0 11.375,5.65625 4.20313,5.671875 4.20313,15.4375 0,9.71875 -4.20313,15.40625 -4.1875,5.6875 -11.375,5.6875 m 0,7.609375 q 11.71875,0 18.40625,-7.625 6.70313,-7.609375 6.70313,-21.078125 0,-13.421875 -6.70313,-21.078125 -6.6875,-7.640625 -18.40625,-7.640625 -11.76562,0 -18.4375,7.640625 -6.65625,7.65625 -6.65625,21.078125 0,13.46875 6.65625,21.078125 Q 669.5293,56 681.29492,56"
               inkscape:connector-curvature="0"
               style="stroke-linecap:butt;stroke-linejoin:round;stroke-miterlimit:100000" />
            <path
               id="use520"
               d="m 752.97656,46.296875 q -1.51562,0.875 -3.29687,1.28125 Q 747.89844,48 745.75781,48 q -7.625,0 -11.70312,-4.953125 -4.07813,-4.953125 -4.07813,-14.234375 l 0,-28.8125 -9.03125,0 0,54.6875 9.03125,0 0,-8.5 q 2.84375,4.984375 7.375,7.390625 Q 741.89844,56 748.39844,56 q 0.92187,0 2.04687,-0.125 1.125,-0.109375 2.48438,-0.359375 z"
               inkscape:connector-curvature="0"
               style="stroke-linecap:butt;stroke-linejoin:round;stroke-miterlimit:100000" />
            <path
               id="use522"
               d="m 804.96484,44.1875 q 3.375,6.0625 8.0625,8.9375 4.6875,2.875 11.03125,2.875 8.54688,0 13.1875,-5.984375 4.64063,-5.96875 4.64063,-17 l 0,-33.015625 -9.03125,0 0,32.71875 q 0,7.859375 -2.79688,11.65625 -2.78125,3.8125 -8.48437,3.8125 -6.98438,0 -11.04688,-4.640625 -4.04687,-4.625 -4.04687,-12.640625 l 0,-30.90625 -9.03125,0 0,32.71875 q 0,7.90625 -2.78125,11.6875 -2.78125,3.78125 -8.59375,3.78125 -6.89063,0 -10.95313,-4.65625 -4.04687,-4.65625 -4.04687,-12.625 l 0,-30.90625 -9.03125,0 0,54.6875 9.03125,0 0,-8.5 q 3.07812,5.03125 7.375,7.421875 Q 782.74609,56 788.65234,56 q 5.96875,0 10.14063,-3.03125 4.17187,-3.015625 6.17187,-8.78125"
               inkscape:connector-curvature="0"
               style="stroke-linecap:butt;stroke-linejoin:round;stroke-miterlimit:100000" />
            <path
               id="use524"
               d="m 884.6582,27.484375 q -10.89062,0 -15.09375,-2.484375 -4.20312,-2.484375 -4.20312,-8.5 0,-4.78125 3.15625,-7.59375 3.15625,-2.796875 8.5625,-2.796875 7.48437,0 12,5.296875 4.51562,5.296875 4.51562,14.078125 l 0,2 z m 17.92188,3.71875 0,-31.203125 -8.98438,0 0,8.296875 q -3.07812,-4.96875 -7.67187,-7.34375 -4.59375,-2.375 -11.23438,-2.375 -8.39062,0 -13.35937,4.71875 -4.95313,4.71875 -4.95313,12.625 0,9.21875 6.17188,13.90625 6.1875,4.6875 18.4375,4.6875 l 12.60937,0 0,0.890625 q 0,6.203125 -4.07812,9.59375 -4.07813,3.390625 -11.45313,3.390625 -4.6875,0 -9.14062,-1.125 -4.4375,-1.125 -8.53125,-3.375 l 0,8.3125 q 4.92187,1.90625 9.5625,2.84375 Q 874.5957,56 878.98633,56 q 11.875,0 17.73437,-6.15625 5.85938,-6.140625 5.85938,-18.640625"
               inkscape:connector-curvature="0"
               style="stroke-linecap:butt;stroke-linejoin:round;stroke-miterlimit:100000" />
            <path
               id="use526"
               d="m 966.54687,33.015625 0,-33.015625 -8.98437,0 0,32.71875 q 0,7.765625 -3.03125,11.609375 -3.03125,3.859375 -9.07813,3.859375 -7.28125,0 -11.48437,-4.640625 -4.20313,-4.625 -4.20313,-12.640625 l 0,-30.90625 -9.03125,0 0,54.6875 9.03125,0 0,-8.5 Q 933,51.125 937.35937,53.5625 941.73437,56 947.45312,56 q 9.42188,0 14.25,-5.828125 4.84375,-5.828125 4.84375,-17.15625"
               inkscape:connector-curvature="0"
               style="stroke-linecap:butt;stroke-linejoin:round;stroke-miterlimit:100000" />
            <use
               x="975.03515625"
               xlink:href="#BitstreamVeraSans-Roman-63"
               id="use528" />
            <path
               id="use530"
               d="m 1086.2188,29.59375 0,-4.390625 -41.3125,0 q 0.5937,-9.28125 5.5937,-14.140625 5,-4.859375 13.9375,-4.859375 5.1719,0 10.0313,1.265625 4.8593,1.265625 9.6562,3.8125 l 0,-8.5 q -4.8437,-2.046875 -9.9219,-3.125 -5.0781,-1.078125 -10.2968,-1.078125 -13.0938,0 -20.7344,7.609375 -7.6406,7.625 -7.6406,20.625 0,13.421875 7.25,21.296875 Q 1050.0313,56 1062.3438,56 q 11.0312,0 17.4531,-7.109375 6.4219,-7.09375 6.4219,-19.296875 m -8.9844,2.640625 q -0.094,7.359375 -4.125,11.75 -4.0313,4.40625 -10.6719,4.40625 -7.5156,0 -12.0312,-4.25 -4.5157,-4.25 -5.2032,-11.96875 z"
               inkscape:connector-curvature="0"
               style="stroke-linecap:butt;stroke-linejoin:round;stroke-miterlimit:100000" />
          </g>
        </g>
      </g>
    </g>
  </g>
  <defs
     id="defs532">
    <clipPath
       id="p74ed5fec2c">
      <rect
         height="345.6"
         width="446.4"
         x="72.0"
         y="43.2"
         id="rect535" />
    </clipPath>
  </defs>
  <text
     xml:space="preserve"
     style="font-style:normal;font-weight:normal;font-size:16px;line-height:125%;font-family:sans-serif;letter-spacing:0px;word-spacing:0px;fill:#000000;fill-opacity:1;stroke:none;stroke-width:1px;stroke-linecap:butt;stroke-linejoin:miter;stroke-miterlimit:100000;stroke-opacity:1"
     x="322.03171"
     y="263.59824"
     id="text4694-6"
     sodipodi:linespacing="125%"
     transform="matrix(0.8300123,0.55774509,-0.55774509,0.8300123,0,0)"><tspan
       sodipodi:role="line"
       id="tspan4696-7"
       style="font-style:normal;font-variant:normal;font-weight:bold;font-stretch:normal;font-size:12px;font-family:sans-serif;-inkscape-font-specification:'sans-serif Bold';stroke-linecap:butt;stroke-linejoin:round;stroke-miterlimit:100000"
       x="322.03171"
       y="263.59824">simultanuous (Ca)</tspan></text>
</svg>
